<svg xmlns="http://www.w3.org/2000/svg" version="1.1" xmlns:xlink="http://www.w3.org/1999/xlink" xmlns:svgjs="http://svgjs.dev/svgjs" width="1500" height="1687" viewBox="0 0 1500 1687"><g transform="matrix(1,0,0,1,0.00011015625000254659,0)"><svg viewBox="0 0 320 360" data-background-color="#ffffff" preserveAspectRatio="xMidYMid meet" height="1687" width="1500" xmlns="http://www.w3.org/2000/svg" xmlns:xlink="http://www.w3.org/1999/xlink"><g id="tight-bounds" transform="matrix(1,0,0,1,0.000023499999997511622,0)"><svg viewBox="0 0 320 360" height="360" width="320"><g><svg></svg></g><g><svg viewBox="0 0 320 360" height="360" width="320"><g><path transform="translate(-74.99272,-51.79039) scale(4.65793,4.65793)" d="M20.6 59.9l0.8 1-0.4-1.3c-0.1-0.6-0.8 0.1-0.4 0.3M21.5 59.3c0.3 0.5 0.6 1 0.6 1.5 0 0.7 0.6 1 1.1 1.2-0.7-0.8-1.1-3-1.7-2.7M59.9 16.9c1.7 0 3.3-0.2 5.1 0.2 4.4 1.1 8.1 3.3 10.6 6.4l7 11.2c0.3 2.8 0.9 5.9 0.8 9.3 0.7 0 0.6-1 1.4-1.2-0.8 2-1.2 4.5-1.4 7.4-0.5-1.6 0-4 0.1-5.3-0.7 1.1-1.1 0.3-1.1-0.2 0.1-0.8-0.3-0.7-0.6-1-1.1-1-1.8-2.1-2.6-3.8 0.5-1.3 0.6-3.2-1-4.2-0.5-0.3-1.1-0.8-1.4-1.6-0.4-1.1-1.1-2.4-0.9-4.1 0.1-0.5-1.5 1.1-2.4 0.4-3.9-2.7-7.8-5.8-12.5-8.4-2.5 0-4.3-0.9-5.2-2-0.8-1-0.2-2.3 1-2.4 0.7 0 1.5-0.2 2.1 0.2 0.1-0.4 0.5-0.9 1-0.9M50 14.6l0.2 0.1c1 0.2 1.5 1.6 2.6 1.1 0 0.7 0.1 1.4-0.1 1.9-0.3 0.8-1.2 0.8-1.9 0.8-6.7-0.4-10.6 2.4-14.7 4.8-1.1 0.7-2.3 1.2-3.2 2.1-4.3 4-9 7.7-10.1 15.1l-0.9 8.2c-0.1 0.9-1.1 1.8-0.9 2.9l0.7 4.9c-0.7-0.7-1.1 0.2-0.9 0.6 0.1 0.3 0.5 1.3 1.1 0.4 0.8 1.5 1.6 4.4 2.7 5.7 3.4 4 7.8 7.6 11.4 11.2 0.9-0.2 1.6-0.2 1.8-0.8 0.3 0.6-0.3 1.2-0.8 1.3 1.6 1 3.4 1.9 5.8 2.1 3.1 0.2 6 0.7 8.7 1.4 1.4-0.4 2.8-0.6 4.3-0.7 0.5 0 0.8-0.8 1.4-1l0.1-1c0.6 0.9 0.5-0.3 0.1-0.9 0.7 0.6 0.9 1.1 1.2 1.5 0-0.3 0.8-1.4 0.8-0.1l0.2-1.3c0.3-0.2 0.4 1.1 0.7 0.2 0.3-0.9 0.9-0.2 1.5-0.5-0.2 0.4-0.1 1.2 0.6 0.7l0.8-0.7c0.5 1.2 1.3 0.7 1.7 0.5 4.4-2.8 8.8-6.1 13-9.4l-0.1 1.3 0.5-1.6c0.5 0.5 0.9 0.1 1.1-0.2 0.6-1 1.4-2 2.7-2.9-1.6 4.3-3.5 7.7-5.9 10.5l-1 1.2c0 0.7-0.2 1.6-1 1.7-0.4 0.1-1.2-0.2-1.8 0.4-0.3 0.4 0.7 1.2-0.1 0.6-0.7-0.5-1.4 0-2.2 0.2-0.6 0.2 0.4 0.8 0.6 1.2 0.2 0.4 0.4 0.8 0.3 1.3l-1.1-1.2c-1.3 0.7-2.1 2-3.2 3-0.5 0.4-0.3 1.1-0.3 1.7-0.7 0-1.5-0.2-1.9 0.2-0.3 0.4-0.2 1-0.2 1.6-1-0.1-1.1-1.6-2-1.3-0.9 0.2-1.9 0.3-2.7 0.8 0.6 1.2-1 0.5-0.8 0.7-1.5-0.9-2.8-1.6-4.4-1-3.4-1.1-7.6-0.6-10.7-0.2 0-0.5 0.1-1-0.1-1.1-0.2 0.5-0.8 0.3-0.7 0.3-1.9-1.3-3.8-2.1-5.8-3.2-1.8 0.2-3.5-0.7-4-1.2-1.4-1.3-3-0.6-4.3-0.9-2.8-0.7-3.8-3.6-4.1-5.6-0.2-1-1-1.4-1.3-1.3-1.3-4.2-3.3-8-4.9-11.9-0.4-1-0.3-2-0.3-3.1 0.5 0.2 1 0.1 0.9-0.6-0.5-3.3-1.7-5.8-3-8.2 0.7-3.4 0.8-7.4 2.4-10.4 1.4-2.7 4-4.1 5.8-6.4 0.6-0.8 0.6-1.9 1.2-2.6 2-2 4-4.1 6.2-5.9 1-0.8 2.2 0 3.7-0.3 0.5-1.8 2.5-3.4 4.4-2.9 0.8 0.2 2.4-1.9 2.9-2.1 0.8-0.3 0.4 0.8 0.4 1.5 1.9-1.5 4.5-2.3 6.9-3.2" fill="#7a26c1" fill-rule="nonzero" stroke="none" stroke-width="1" stroke-linecap="butt" stroke-linejoin="miter" stroke-miterlimit="10" stroke-dasharray="" stroke-dashoffset="0" font-family="none" font-weight="none" font-size="none" text-anchor="none" style="mix-blend-mode: normal" data-fill-palette-color="tertiary"></path></g><g transform="matrix(1,0,0,1,70.17268386217037,90)"><svg viewBox="0 0 179.65463227565925 180" height="180" width="179.65463227565925"><g><svg viewBox="0 0 192 192.3691004358389" height="180" width="179.65463227565925"><g transform="matrix(1,0,0,1,0,101.54336161352694)"><svg viewBox="0 0 192 90.82573882231196" height="90.82573882231196" width="192"><g id="textblocktransform"><svg viewBox="0 0 192 90.82573882231196" height="90.82573882231196" width="192" id="textblock"><g><svg viewBox="0 0 192 90.82573882231196" height="90.82573882231196" width="192"><g transform="matrix(1,0,0,1,0,0)"><svg width="192" viewBox="-5.124990000000002 -40.581230000000005 121.77682 57.606592267184126" height="90.82573882231196" data-palette-color="#7a26c1"><path d="M18.061 5.994l-4.122 1.731-19.064-19.151 6.491-2.727 8.831 9.87 2.619 3.369-0.673-4.186-0.995-13.162 6.122-2.571zM40.383 0.317v0c-1.766 0.379-3.333 0.133-4.7-0.74-1.36-0.874-2.388-2.007-3.082-3.399v0l1.045 4.869-5.407 1.161-8.022-37.369 5.905-1.267 2.767 12.886 0.408 4.331c0.028-1.172 0.353-2.2 0.975-3.083 0.62-0.89 1.395-1.616 2.325-2.177 0.925-0.553 1.853-0.93 2.784-1.13v0c3.05-0.655 5.586-0.074 7.606 1.743 2.021 1.823 3.483 4.84 4.387 9.051v0c0.63 2.933 0.711 5.456 0.244 7.567-0.459 2.117-1.33 3.811-2.612 5.081-1.277 1.263-2.818 2.088-4.623 2.476zM37.912-4.236v0c0.808-0.174 1.517-0.605 2.126-1.295 0.615-0.691 1.026-1.683 1.233-2.975 0.199-1.297 0.086-2.937-0.34-4.918v0c-0.592-2.757-1.481-4.643-2.667-5.657-1.186-1.014-2.411-1.385-3.675-1.113v0c-1.519 0.326-2.507 1.36-2.965 3.102-0.459 1.735-0.441 3.756 0.054 6.063v0c0.497 2.314 1.303 4.101 2.419 5.362 1.123 1.259 2.394 1.736 3.815 1.431zM60.098-2.4l-6.134 0.277-1.723-38.181 6.134-0.277zM74.236-0.013v0c-3.656-0.475-6.333-1.989-8.031-4.543-1.699-2.553-2.285-5.856-1.758-9.909v0c0.532-4.092 1.977-7.142 4.334-9.148 2.358-2.006 5.365-2.772 9.021-2.297v0c3.669 0.477 6.313 2.013 7.933 4.611 1.611 2.603 2.161 5.874 1.649 9.814v0c-0.512 3.94-1.912 6.958-4.202 9.054-2.295 2.088-5.277 2.894-8.946 2.418zM74.984-4.988v0c3.154 0.41 5.076-2.043 5.766-7.359v0c0.696-5.355-0.533-8.237-3.687-8.647v0c-1.567-0.204-2.861 0.26-3.882 1.392-1.027 1.124-1.727 3.124-2.1 5.999v0c-0.371 2.856-0.203 4.955 0.503 6.297 0.7 1.341 1.833 2.114 3.4 2.318zM86.051 11.058l4.273-3.475c0.442 0.559 1.015 1.127 1.719 1.704 0.711 0.579 1.608 1.067 2.692 1.463v0c2.016 0.737 3.719 0.767 5.109 0.09 1.39-0.677 2.503-2.158 3.339-4.444v0l1.346-3.682c-0.518 0.719-1.157 1.387-1.915 2.005-0.758 0.617-1.643 1.028-2.655 1.233-1.014 0.211-2.16 0.084-3.437-0.383v0c-1.778-0.65-3.24-1.642-4.385-2.976-1.143-1.34-1.818-3.046-2.026-5.117-0.206-2.077 0.211-4.54 1.253-7.389v0c1.06-2.899 2.344-5.102 3.853-6.609 1.503-1.509 3.125-2.432 4.866-2.768 1.735-0.338 3.47-0.19 5.204 0.444v0c1.935 0.707 3.238 1.734 3.91 3.08 0.664 1.35 0.892 2.629 0.684 3.838v0l2.14-3.817 4.631 1.692-8.181 22.382c-1.318 3.607-3.273 6.129-5.864 7.566-2.583 1.434-5.646 1.503-9.19 0.208v0c-1.903-0.696-3.47-1.538-4.698-2.526-1.22-0.993-2.109-1.832-2.668-2.519zM99.398 1.371v0c1.365 0.499 2.676 0.243 3.932-0.767 1.25-1.012 2.31-2.708 3.18-5.087v0c0.824-2.254 1.15-4.194 0.977-5.818-0.173-1.625-0.982-2.701-2.429-3.23v0c-0.801-0.293-1.657-0.332-2.565-0.118-0.909 0.214-1.803 0.786-2.682 1.713-0.872 0.93-1.651 2.332-2.335 4.204v0c-0.932 2.548-1.181 4.58-0.747 6.094 0.439 1.516 1.329 2.519 2.669 3.009z" opacity="1" transform="matrix(1,0,0,1,0,0)" fill="#7a26c1" class="wordmark-text-0" data-fill-palette-color="primary" id="text-0"></path></svg></g></svg></g></svg></g></svg></g><g transform="matrix(1,0,0,1,84.15044420474409,0)"><svg viewBox="0 0 23.69911159051182 73.47802270725037" height="73.47802270725037" width="23.69911159051182"><g><svg xmlns="http://www.w3.org/2000/svg" xmlns:xlink="http://www.w3.org/1999/xlink" version="1.1" x="0" y="0" viewBox="35.486 5 29.028 90" enable-background="new 0 0 100 100" xml:space="preserve" height="73.47802270725037" width="23.69911159051182" class="icon-icon-0" data-fill-palette-color="accent" id="icon-0"><g fill="#a437db" data-fill-palette-color="accent"><g fill="#a437db" data-fill-palette-color="accent"><path d="M35.486 5v90h29.028V5H35.486zM63.038 93.523H36.962V6.476h26.076V93.523z" fill="#a437db" data-fill-palette-color="accent"></path><path d="M60.096 43.236H39.908v5.583h20.188V43.236zM58.62 47.343H41.384v-2.632H58.62V47.343z" fill="#a437db" data-fill-palette-color="accent"></path><path d="M60.096 35.063H39.908v5.581h20.188V35.063zM58.62 39.169H41.384v-2.63H58.62V39.169z" fill="#a437db" data-fill-palette-color="accent"></path><path d="M60.096 26.889H39.908v5.582h20.188V26.889zM58.62 30.996H41.384v-2.631H58.62V30.996z" fill="#a437db" data-fill-palette-color="accent"></path><path d="M60.096 18.715H39.908v5.583h20.188V18.715zM58.62 22.822H41.384V20.19H58.62V22.822z" fill="#a437db" data-fill-palette-color="accent"></path><path d="M60.096 10.542H39.908v5.583h20.188V10.542zM58.62 14.65H41.384v-2.632H58.62V14.65z" fill="#a437db" data-fill-palette-color="accent"></path><path d="M43.574 60.13c2.163 0 3.924-1.756 3.924-3.915 0-2.16-1.761-3.917-3.924-3.917-2.158 0-3.914 1.757-3.914 3.917C39.66 58.374 41.416 60.13 43.574 60.13zM43.574 53.773c1.35 0 2.448 1.095 2.448 2.44 0 1.347-1.099 2.438-2.448 2.438-1.345 0-2.438-1.094-2.438-2.438C41.136 54.868 42.229 53.773 43.574 53.773z" fill="#a437db" data-fill-palette-color="accent"></path><path d="M53.421 56.215c0-1.374-1.119-2.492-2.494-2.492-1.372 0-2.488 1.118-2.488 2.492 0 1.373 1.116 2.489 2.488 2.489C52.302 58.704 53.421 57.588 53.421 56.215zM49.914 56.215c0-0.561 0.454-1.017 1.013-1.017 0.562 0 1.019 0.456 1.019 1.017 0 0.559-0.457 1.016-1.019 1.016C50.368 57.229 49.914 56.773 49.914 56.215z" fill="#a437db" data-fill-palette-color="accent"></path><path d="M59.339 56.215c0-1.374-1.118-2.492-2.493-2.492-1.373 0-2.49 1.118-2.49 2.492 0 1.373 1.117 2.489 2.49 2.489C58.221 58.704 59.339 57.588 59.339 56.215zM55.83 56.215c0-0.561 0.456-1.017 1.016-1.017 0.562 0 1.018 0.456 1.018 1.017 0 0.559-0.456 1.016-1.018 1.016C56.286 57.229 55.83 56.773 55.83 56.215z" fill="#a437db" data-fill-palette-color="accent"></path><path d="M50.927 66.253c-1.372 0-2.488 1.117-2.488 2.489 0 1.374 1.116 2.492 2.488 2.492 1.375 0 2.494-1.118 2.494-2.492C53.421 67.37 52.302 66.253 50.927 66.253zM50.927 69.759c-0.559 0-1.013-0.456-1.013-1.017 0-0.559 0.454-1.016 1.013-1.016 0.562 0 1.019 0.457 1.019 1.016C51.945 69.303 51.488 69.759 50.927 69.759z" fill="#a437db" data-fill-palette-color="accent"></path><path d="M56.846 66.253c-1.373 0-2.49 1.117-2.49 2.489 0 1.374 1.117 2.492 2.49 2.492 1.375 0 2.493-1.118 2.493-2.492C59.339 67.37 58.221 66.253 56.846 66.253zM56.846 69.759c-0.56 0-1.016-0.456-1.016-1.017 0-0.559 0.456-1.016 1.016-1.016 0.562 0 1.018 0.457 1.018 1.016C57.863 69.303 57.406 69.759 56.846 69.759z" fill="#a437db" data-fill-palette-color="accent"></path><path d="M43.574 72.296c2.163 0 3.924-1.757 3.924-3.917 0-2.161-1.761-3.919-3.924-3.919-2.158 0-3.914 1.758-3.914 3.919C39.66 70.539 41.416 72.296 43.574 72.296zM43.574 65.936c1.35 0 2.448 1.097 2.448 2.443 0 1.348-1.099 2.441-2.448 2.441-1.345 0-2.438-1.096-2.438-2.441C41.136 67.031 42.229 65.936 43.574 65.936z" fill="#a437db" data-fill-palette-color="accent"></path><rect x="48.114" y="61.486" width="11.488" height="1.476" fill="#a437db" data-fill-palette-color="accent"></rect><rect x="40.684" y="76.471" width="1.476" height="13.152" fill="#a437db" data-fill-palette-color="accent"></rect><rect x="44.115" y="76.471" width="1.476" height="13.152" fill="#a437db" data-fill-palette-color="accent"></rect><rect x="47.549" y="76.471" width="1.476" height="13.152" fill="#a437db" data-fill-palette-color="accent"></rect><rect x="50.98" y="76.471" width="1.476" height="13.152" fill="#a437db" data-fill-palette-color="accent"></rect><rect x="54.412" y="76.471" width="1.477" height="13.152" fill="#a437db" data-fill-palette-color="accent"></rect><rect x="57.846" y="76.471" width="1.475" height="13.152" fill="#a437db" data-fill-palette-color="accent"></rect></g></g></svg></g></svg></g><g></g></svg></g></svg></g></svg></g><defs></defs></svg><rect width="320" height="360" fill="none" stroke="none" visibility="hidden"></rect></g></svg></g></svg>